<?xml version="1.0" encoding="utf-8"?>
<!DOCTYPE svg PUBLIC "-//W3C//DTD SVG 20010904//EN" "http://www.w3.org/TR/2001/REC-SVG-20010904/DTD/svg10.dtd">
<svg xmlns="http://www.w3.org/2000/svg" xml:space="preserve" xmlns:xlink="http://www.w3.org/1999/xlink" width="740" height="740" viewBox="0 0 740 740">
<desc></desc>
<rect width="740" height="740" fill="#ffffff" fill-opacity="0" cx="0" cy="0" />
<defs>
<rect id="p" width="20" height="20" />
<circle id="circle" r="10" stroke-width="0" fill="cf0a2c" />
<rect id="hor" width="20" height="4" />
<rect id="ver" width="4" height="20" />
<polygon id="3d1" points="0,0 20,0 0,20" stroke-width="0" fill="cf0a2c" />
<polygon id="3d2" points="0,20 20,0 20,20" stroke-width="0" fill="#e78596" />
</defs>
<g fill="#cf0a2c">
<use x="40" y="48" xlink:href="#hor" />
<use x="48" y="40" xlink:href="#ver" />
<use x="60" y="48" xlink:href="#hor" />
<use x="68" y="40" xlink:href="#ver" />
<use x="80" y="48" xlink:href="#hor" />
<use x="88" y="40" xlink:href="#ver" />
<use x="100" y="48" xlink:href="#hor" />
<use x="108" y="40" xlink:href="#ver" />
<use x="120" y="48" xlink:href="#hor" />
<use x="128" y="40" xlink:href="#ver" />
<use x="140" y="48" xlink:href="#hor" />
<use x="148" y="40" xlink:href="#ver" />
<use x="160" y="48" xlink:href="#hor" />
<use x="168" y="40" xlink:href="#ver" />
<use x="200" y="48" xlink:href="#hor" />
<use x="208" y="40" xlink:href="#ver" />
<use x="240" y="48" xlink:href="#hor" />
<use x="248" y="40" xlink:href="#ver" />
<use x="320" y="48" xlink:href="#hor" />
<use x="328" y="40" xlink:href="#ver" />
<use x="380" y="48" xlink:href="#hor" />
<use x="388" y="40" xlink:href="#ver" />
<use x="500" y="48" xlink:href="#hor" />
<use x="508" y="40" xlink:href="#ver" />
<use x="520" y="48" xlink:href="#hor" />
<use x="528" y="40" xlink:href="#ver" />
<use x="560" y="48" xlink:href="#hor" />
<use x="568" y="40" xlink:href="#ver" />
<use x="580" y="48" xlink:href="#hor" />
<use x="588" y="40" xlink:href="#ver" />
<use x="600" y="48" xlink:href="#hor" />
<use x="608" y="40" xlink:href="#ver" />
<use x="620" y="48" xlink:href="#hor" />
<use x="628" y="40" xlink:href="#ver" />
<use x="640" y="48" xlink:href="#hor" />
<use x="648" y="40" xlink:href="#ver" />
<use x="660" y="48" xlink:href="#hor" />
<use x="668" y="40" xlink:href="#ver" />
<use x="680" y="48" xlink:href="#hor" />
<use x="688" y="40" xlink:href="#ver" />
<use x="40" y="68" xlink:href="#hor" />
<use x="48" y="60" xlink:href="#ver" />
<use x="160" y="68" xlink:href="#hor" />
<use x="168" y="60" xlink:href="#ver" />
<use x="200" y="68" xlink:href="#hor" />
<use x="208" y="60" xlink:href="#ver" />
<use x="240" y="68" xlink:href="#hor" />
<use x="248" y="60" xlink:href="#ver" />
<use x="260" y="68" xlink:href="#hor" />
<use x="268" y="60" xlink:href="#ver" />
<use x="320" y="68" xlink:href="#hor" />
<use x="328" y="60" xlink:href="#ver" />
<use x="360" y="68" xlink:href="#hor" />
<use x="368" y="60" xlink:href="#ver" />
<use x="380" y="68" xlink:href="#hor" />
<use x="388" y="60" xlink:href="#ver" />
<use x="400" y="68" xlink:href="#hor" />
<use x="408" y="60" xlink:href="#ver" />
<use x="420" y="68" xlink:href="#hor" />
<use x="428" y="60" xlink:href="#ver" />
<use x="460" y="68" xlink:href="#hor" />
<use x="468" y="60" xlink:href="#ver" />
<use x="480" y="68" xlink:href="#hor" />
<use x="488" y="60" xlink:href="#ver" />
<use x="520" y="68" xlink:href="#hor" />
<use x="528" y="60" xlink:href="#ver" />
<use x="560" y="68" xlink:href="#hor" />
<use x="568" y="60" xlink:href="#ver" />
<use x="680" y="68" xlink:href="#hor" />
<use x="688" y="60" xlink:href="#ver" />
<use x="40" y="88" xlink:href="#hor" />
<use x="48" y="80" xlink:href="#ver" />
<use x="80" y="88" xlink:href="#hor" />
<use x="88" y="80" xlink:href="#ver" />
<use x="100" y="88" xlink:href="#hor" />
<use x="108" y="80" xlink:href="#ver" />
<use x="120" y="88" xlink:href="#hor" />
<use x="128" y="80" xlink:href="#ver" />
<use x="160" y="88" xlink:href="#hor" />
<use x="168" y="80" xlink:href="#ver" />
<use x="200" y="88" xlink:href="#hor" />
<use x="208" y="80" xlink:href="#ver" />
<use x="260" y="88" xlink:href="#hor" />
<use x="268" y="80" xlink:href="#ver" />
<use x="280" y="88" xlink:href="#hor" />
<use x="288" y="80" xlink:href="#ver" />
<use x="320" y="88" xlink:href="#hor" />
<use x="328" y="80" xlink:href="#ver" />
<use x="340" y="88" xlink:href="#hor" />
<use x="348" y="80" xlink:href="#ver" />
<use x="360" y="88" xlink:href="#hor" />
<use x="368" y="80" xlink:href="#ver" />
<use x="400" y="88" xlink:href="#hor" />
<use x="408" y="80" xlink:href="#ver" />
<use x="460" y="88" xlink:href="#hor" />
<use x="468" y="80" xlink:href="#ver" />
<use x="500" y="88" xlink:href="#hor" />
<use x="508" y="80" xlink:href="#ver" />
<use x="520" y="88" xlink:href="#hor" />
<use x="528" y="80" xlink:href="#ver" />
<use x="560" y="88" xlink:href="#hor" />
<use x="568" y="80" xlink:href="#ver" />
<use x="600" y="88" xlink:href="#hor" />
<use x="608" y="80" xlink:href="#ver" />
<use x="620" y="88" xlink:href="#hor" />
<use x="628" y="80" xlink:href="#ver" />
<use x="640" y="88" xlink:href="#hor" />
<use x="648" y="80" xlink:href="#ver" />
<use x="680" y="88" xlink:href="#hor" />
<use x="688" y="80" xlink:href="#ver" />
<use x="40" y="108" xlink:href="#hor" />
<use x="48" y="100" xlink:href="#ver" />
<use x="80" y="108" xlink:href="#hor" />
<use x="88" y="100" xlink:href="#ver" />
<use x="100" y="108" xlink:href="#hor" />
<use x="108" y="100" xlink:href="#ver" />
<use x="120" y="108" xlink:href="#hor" />
<use x="128" y="100" xlink:href="#ver" />
<use x="160" y="108" xlink:href="#hor" />
<use x="168" y="100" xlink:href="#ver" />
<use x="220" y="108" xlink:href="#hor" />
<use x="228" y="100" xlink:href="#ver" />
<use x="380" y="108" xlink:href="#hor" />
<use x="388" y="100" xlink:href="#ver" />
<use x="440" y="108" xlink:href="#hor" />
<use x="448" y="100" xlink:href="#ver" />
<use x="480" y="108" xlink:href="#hor" />
<use x="488" y="100" xlink:href="#ver" />
<use x="500" y="108" xlink:href="#hor" />
<use x="508" y="100" xlink:href="#ver" />
<use x="520" y="108" xlink:href="#hor" />
<use x="528" y="100" xlink:href="#ver" />
<use x="560" y="108" xlink:href="#hor" />
<use x="568" y="100" xlink:href="#ver" />
<use x="600" y="108" xlink:href="#hor" />
<use x="608" y="100" xlink:href="#ver" />
<use x="620" y="108" xlink:href="#hor" />
<use x="628" y="100" xlink:href="#ver" />
<use x="640" y="108" xlink:href="#hor" />
<use x="648" y="100" xlink:href="#ver" />
<use x="680" y="108" xlink:href="#hor" />
<use x="688" y="100" xlink:href="#ver" />
<use x="40" y="128" xlink:href="#hor" />
<use x="48" y="120" xlink:href="#ver" />
<use x="80" y="128" xlink:href="#hor" />
<use x="88" y="120" xlink:href="#ver" />
<use x="100" y="128" xlink:href="#hor" />
<use x="108" y="120" xlink:href="#ver" />
<use x="120" y="128" xlink:href="#hor" />
<use x="128" y="120" xlink:href="#ver" />
<use x="160" y="128" xlink:href="#hor" />
<use x="168" y="120" xlink:href="#ver" />
<use x="240" y="128" xlink:href="#hor" />
<use x="248" y="120" xlink:href="#ver" />
<use x="260" y="128" xlink:href="#hor" />
<use x="268" y="120" xlink:href="#ver" />
<use x="280" y="128" xlink:href="#hor" />
<use x="288" y="120" xlink:href="#ver" />
<use x="300" y="128" xlink:href="#hor" />
<use x="308" y="120" xlink:href="#ver" />
<use x="320" y="128" xlink:href="#hor" />
<use x="328" y="120" xlink:href="#ver" />
<use x="340" y="128" xlink:href="#hor" />
<use x="348" y="120" xlink:href="#ver" />
<use x="360" y="128" xlink:href="#hor" />
<use x="368" y="120" xlink:href="#ver" />
<use x="400" y="128" xlink:href="#hor" />
<use x="408" y="120" xlink:href="#ver" />
<use x="460" y="128" xlink:href="#hor" />
<use x="468" y="120" xlink:href="#ver" />
<use x="560" y="128" xlink:href="#hor" />
<use x="568" y="120" xlink:href="#ver" />
<use x="600" y="128" xlink:href="#hor" />
<use x="608" y="120" xlink:href="#ver" />
<use x="620" y="128" xlink:href="#hor" />
<use x="628" y="120" xlink:href="#ver" />
<use x="640" y="128" xlink:href="#hor" />
<use x="648" y="120" xlink:href="#ver" />
<use x="680" y="128" xlink:href="#hor" />
<use x="688" y="120" xlink:href="#ver" />
<use x="40" y="148" xlink:href="#hor" />
<use x="48" y="140" xlink:href="#ver" />
<use x="160" y="148" xlink:href="#hor" />
<use x="168" y="140" xlink:href="#ver" />
<use x="200" y="148" xlink:href="#hor" />
<use x="208" y="140" xlink:href="#ver" />
<use x="220" y="148" xlink:href="#hor" />
<use x="228" y="140" xlink:href="#ver" />
<use x="280" y="148" xlink:href="#hor" />
<use x="288" y="140" xlink:href="#ver" />
<use x="300" y="148" xlink:href="#hor" />
<use x="308" y="140" xlink:href="#ver" />
<use x="320" y="148" xlink:href="#hor" />
<use x="328" y="140" xlink:href="#ver" />
<use x="380" y="148" xlink:href="#hor" />
<use x="388" y="140" xlink:href="#ver" />
<use x="500" y="148" xlink:href="#hor" />
<use x="508" y="140" xlink:href="#ver" />
<use x="520" y="148" xlink:href="#hor" />
<use x="528" y="140" xlink:href="#ver" />
<use x="560" y="148" xlink:href="#hor" />
<use x="568" y="140" xlink:href="#ver" />
<use x="680" y="148" xlink:href="#hor" />
<use x="688" y="140" xlink:href="#ver" />
<use x="40" y="168" xlink:href="#hor" />
<use x="48" y="160" xlink:href="#ver" />
<use x="60" y="168" xlink:href="#hor" />
<use x="68" y="160" xlink:href="#ver" />
<use x="80" y="168" xlink:href="#hor" />
<use x="88" y="160" xlink:href="#ver" />
<use x="100" y="168" xlink:href="#hor" />
<use x="108" y="160" xlink:href="#ver" />
<use x="120" y="168" xlink:href="#hor" />
<use x="128" y="160" xlink:href="#ver" />
<use x="140" y="168" xlink:href="#hor" />
<use x="148" y="160" xlink:href="#ver" />
<use x="160" y="168" xlink:href="#hor" />
<use x="168" y="160" xlink:href="#ver" />
<use x="200" y="168" xlink:href="#hor" />
<use x="208" y="160" xlink:href="#ver" />
<use x="240" y="168" xlink:href="#hor" />
<use x="248" y="160" xlink:href="#ver" />
<use x="280" y="168" xlink:href="#hor" />
<use x="288" y="160" xlink:href="#ver" />
<use x="320" y="168" xlink:href="#hor" />
<use x="328" y="160" xlink:href="#ver" />
<use x="360" y="168" xlink:href="#hor" />
<use x="368" y="160" xlink:href="#ver" />
<use x="400" y="168" xlink:href="#hor" />
<use x="408" y="160" xlink:href="#ver" />
<use x="440" y="168" xlink:href="#hor" />
<use x="448" y="160" xlink:href="#ver" />
<use x="480" y="168" xlink:href="#hor" />
<use x="488" y="160" xlink:href="#ver" />
<use x="520" y="168" xlink:href="#hor" />
<use x="528" y="160" xlink:href="#ver" />
<use x="560" y="168" xlink:href="#hor" />
<use x="568" y="160" xlink:href="#ver" />
<use x="580" y="168" xlink:href="#hor" />
<use x="588" y="160" xlink:href="#ver" />
<use x="600" y="168" xlink:href="#hor" />
<use x="608" y="160" xlink:href="#ver" />
<use x="620" y="168" xlink:href="#hor" />
<use x="628" y="160" xlink:href="#ver" />
<use x="640" y="168" xlink:href="#hor" />
<use x="648" y="160" xlink:href="#ver" />
<use x="660" y="168" xlink:href="#hor" />
<use x="668" y="160" xlink:href="#ver" />
<use x="680" y="168" xlink:href="#hor" />
<use x="688" y="160" xlink:href="#ver" />
<use x="200" y="188" xlink:href="#hor" />
<use x="208" y="180" xlink:href="#ver" />
<use x="220" y="188" xlink:href="#hor" />
<use x="228" y="180" xlink:href="#ver" />
<use x="240" y="188" xlink:href="#hor" />
<use x="248" y="180" xlink:href="#ver" />
<use x="260" y="188" xlink:href="#hor" />
<use x="268" y="180" xlink:href="#ver" />
<use x="280" y="188" xlink:href="#hor" />
<use x="288" y="180" xlink:href="#ver" />
<use x="340" y="188" xlink:href="#hor" />
<use x="348" y="180" xlink:href="#ver" />
<use x="380" y="188" xlink:href="#hor" />
<use x="388" y="180" xlink:href="#ver" />
<use x="440" y="188" xlink:href="#hor" />
<use x="448" y="180" xlink:href="#ver" />
<use x="460" y="188" xlink:href="#hor" />
<use x="468" y="180" xlink:href="#ver" />
<use x="480" y="188" xlink:href="#hor" />
<use x="488" y="180" xlink:href="#ver" />
<use x="500" y="188" xlink:href="#hor" />
<use x="508" y="180" xlink:href="#ver" />
<use x="80" y="208" xlink:href="#hor" />
<use x="88" y="200" xlink:href="#ver" />
<use x="100" y="208" xlink:href="#hor" />
<use x="108" y="200" xlink:href="#ver" />
<use x="120" y="208" xlink:href="#hor" />
<use x="128" y="200" xlink:href="#ver" />
<use x="160" y="208" xlink:href="#hor" />
<use x="168" y="200" xlink:href="#ver" />
<use x="200" y="208" xlink:href="#hor" />
<use x="208" y="200" xlink:href="#ver" />
<use x="240" y="208" xlink:href="#hor" />
<use x="248" y="200" xlink:href="#ver" />
<use x="260" y="208" xlink:href="#hor" />
<use x="268" y="200" xlink:href="#ver" />
<use x="280" y="208" xlink:href="#hor" />
<use x="288" y="200" xlink:href="#ver" />
<use x="300" y="208" xlink:href="#hor" />
<use x="308" y="200" xlink:href="#ver" />
<use x="320" y="208" xlink:href="#hor" />
<use x="328" y="200" xlink:href="#ver" />
<use x="340" y="208" xlink:href="#hor" />
<use x="348" y="200" xlink:href="#ver" />
<use x="360" y="208" xlink:href="#hor" />
<use x="368" y="200" xlink:href="#ver" />
<use x="380" y="208" xlink:href="#hor" />
<use x="388" y="200" xlink:href="#ver" />
<use x="420" y="208" xlink:href="#hor" />
<use x="428" y="200" xlink:href="#ver" />
<use x="480" y="208" xlink:href="#hor" />
<use x="488" y="200" xlink:href="#ver" />
<use x="500" y="208" xlink:href="#hor" />
<use x="508" y="200" xlink:href="#ver" />
<use x="520" y="208" xlink:href="#hor" />
<use x="528" y="200" xlink:href="#ver" />
<use x="540" y="208" xlink:href="#hor" />
<use x="548" y="200" xlink:href="#ver" />
<use x="560" y="208" xlink:href="#hor" />
<use x="568" y="200" xlink:href="#ver" />
<use x="580" y="208" xlink:href="#hor" />
<use x="588" y="200" xlink:href="#ver" />
<use x="640" y="208" xlink:href="#hor" />
<use x="648" y="200" xlink:href="#ver" />
<use x="660" y="208" xlink:href="#hor" />
<use x="668" y="200" xlink:href="#ver" />
<use x="680" y="208" xlink:href="#hor" />
<use x="688" y="200" xlink:href="#ver" />
<use x="60" y="228" xlink:href="#hor" />
<use x="68" y="220" xlink:href="#ver" />
<use x="80" y="228" xlink:href="#hor" />
<use x="88" y="220" xlink:href="#ver" />
<use x="120" y="228" xlink:href="#hor" />
<use x="128" y="220" xlink:href="#ver" />
<use x="140" y="228" xlink:href="#hor" />
<use x="148" y="220" xlink:href="#ver" />
<use x="260" y="228" xlink:href="#hor" />
<use x="268" y="220" xlink:href="#ver" />
<use x="280" y="228" xlink:href="#hor" />
<use x="288" y="220" xlink:href="#ver" />
<use x="320" y="228" xlink:href="#hor" />
<use x="328" y="220" xlink:href="#ver" />
<use x="340" y="228" xlink:href="#hor" />
<use x="348" y="220" xlink:href="#ver" />
<use x="380" y="228" xlink:href="#hor" />
<use x="388" y="220" xlink:href="#ver" />
<use x="400" y="228" xlink:href="#hor" />
<use x="408" y="220" xlink:href="#ver" />
<use x="440" y="228" xlink:href="#hor" />
<use x="448" y="220" xlink:href="#ver" />
<use x="460" y="228" xlink:href="#hor" />
<use x="468" y="220" xlink:href="#ver" />
<use x="500" y="228" xlink:href="#hor" />
<use x="508" y="220" xlink:href="#ver" />
<use x="540" y="228" xlink:href="#hor" />
<use x="548" y="220" xlink:href="#ver" />
<use x="560" y="228" xlink:href="#hor" />
<use x="568" y="220" xlink:href="#ver" />
<use x="640" y="228" xlink:href="#hor" />
<use x="648" y="220" xlink:href="#ver" />
<use x="660" y="228" xlink:href="#hor" />
<use x="668" y="220" xlink:href="#ver" />
<use x="680" y="228" xlink:href="#hor" />
<use x="688" y="220" xlink:href="#ver" />
<use x="60" y="248" xlink:href="#hor" />
<use x="68" y="240" xlink:href="#ver" />
<use x="80" y="248" xlink:href="#hor" />
<use x="88" y="240" xlink:href="#ver" />
<use x="100" y="248" xlink:href="#hor" />
<use x="108" y="240" xlink:href="#ver" />
<use x="140" y="248" xlink:href="#hor" />
<use x="148" y="240" xlink:href="#ver" />
<use x="160" y="248" xlink:href="#hor" />
<use x="168" y="240" xlink:href="#ver" />
<use x="220" y="248" xlink:href="#hor" />
<use x="228" y="240" xlink:href="#ver" />
<use x="280" y="248" xlink:href="#hor" />
<use x="288" y="240" xlink:href="#ver" />
<use x="300" y="248" xlink:href="#hor" />
<use x="308" y="240" xlink:href="#ver" />
<use x="320" y="248" xlink:href="#hor" />
<use x="328" y="240" xlink:href="#ver" />
<use x="340" y="248" xlink:href="#hor" />
<use x="348" y="240" xlink:href="#ver" />
<use x="380" y="248" xlink:href="#hor" />
<use x="388" y="240" xlink:href="#ver" />
<use x="440" y="248" xlink:href="#hor" />
<use x="448" y="240" xlink:href="#ver" />
<use x="460" y="248" xlink:href="#hor" />
<use x="468" y="240" xlink:href="#ver" />
<use x="520" y="248" xlink:href="#hor" />
<use x="528" y="240" xlink:href="#ver" />
<use x="540" y="248" xlink:href="#hor" />
<use x="548" y="240" xlink:href="#ver" />
<use x="560" y="248" xlink:href="#hor" />
<use x="568" y="240" xlink:href="#ver" />
<use x="580" y="248" xlink:href="#hor" />
<use x="588" y="240" xlink:href="#ver" />
<use x="620" y="248" xlink:href="#hor" />
<use x="628" y="240" xlink:href="#ver" />
<use x="640" y="248" xlink:href="#hor" />
<use x="648" y="240" xlink:href="#ver" />
<use x="660" y="248" xlink:href="#hor" />
<use x="668" y="240" xlink:href="#ver" />
<use x="80" y="268" xlink:href="#hor" />
<use x="88" y="260" xlink:href="#ver" />
<use x="120" y="268" xlink:href="#hor" />
<use x="128" y="260" xlink:href="#ver" />
<use x="300" y="268" xlink:href="#hor" />
<use x="308" y="260" xlink:href="#ver" />
<use x="340" y="268" xlink:href="#hor" />
<use x="348" y="260" xlink:href="#ver" />
<use x="360" y="268" xlink:href="#hor" />
<use x="368" y="260" xlink:href="#ver" />
<use x="380" y="268" xlink:href="#hor" />
<use x="388" y="260" xlink:href="#ver" />
<use x="400" y="268" xlink:href="#hor" />
<use x="408" y="260" xlink:href="#ver" />
<use x="420" y="268" xlink:href="#hor" />
<use x="428" y="260" xlink:href="#ver" />
<use x="440" y="268" xlink:href="#hor" />
<use x="448" y="260" xlink:href="#ver" />
<use x="460" y="268" xlink:href="#hor" />
<use x="468" y="260" xlink:href="#ver" />
<use x="480" y="268" xlink:href="#hor" />
<use x="488" y="260" xlink:href="#ver" />
<use x="500" y="268" xlink:href="#hor" />
<use x="508" y="260" xlink:href="#ver" />
<use x="560" y="268" xlink:href="#hor" />
<use x="568" y="260" xlink:href="#ver" />
<use x="620" y="268" xlink:href="#hor" />
<use x="628" y="260" xlink:href="#ver" />
<use x="640" y="268" xlink:href="#hor" />
<use x="648" y="260" xlink:href="#ver" />
<use x="660" y="268" xlink:href="#hor" />
<use x="668" y="260" xlink:href="#ver" />
<use x="60" y="288" xlink:href="#hor" />
<use x="68" y="280" xlink:href="#ver" />
<use x="80" y="288" xlink:href="#hor" />
<use x="88" y="280" xlink:href="#ver" />
<use x="120" y="288" xlink:href="#hor" />
<use x="128" y="280" xlink:href="#ver" />
<use x="160" y="288" xlink:href="#hor" />
<use x="168" y="280" xlink:href="#ver" />
<use x="180" y="288" xlink:href="#hor" />
<use x="188" y="280" xlink:href="#ver" />
<use x="220" y="288" xlink:href="#hor" />
<use x="228" y="280" xlink:href="#ver" />
<use x="280" y="288" xlink:href="#hor" />
<use x="288" y="280" xlink:href="#ver" />
<use x="300" y="288" xlink:href="#hor" />
<use x="308" y="280" xlink:href="#ver" />
<use x="320" y="288" xlink:href="#hor" />
<use x="328" y="280" xlink:href="#ver" />
<use x="380" y="288" xlink:href="#hor" />
<use x="388" y="280" xlink:href="#ver" />
<use x="400" y="288" xlink:href="#hor" />
<use x="408" y="280" xlink:href="#ver" />
<use x="420" y="288" xlink:href="#hor" />
<use x="428" y="280" xlink:href="#ver" />
<use x="460" y="288" xlink:href="#hor" />
<use x="468" y="280" xlink:href="#ver" />
<use x="500" y="288" xlink:href="#hor" />
<use x="508" y="280" xlink:href="#ver" />
<use x="520" y="288" xlink:href="#hor" />
<use x="528" y="280" xlink:href="#ver" />
<use x="680" y="288" xlink:href="#hor" />
<use x="688" y="280" xlink:href="#ver" />
<use x="100" y="308" xlink:href="#hor" />
<use x="108" y="300" xlink:href="#ver" />
<use x="140" y="308" xlink:href="#hor" />
<use x="148" y="300" xlink:href="#ver" />
<use x="180" y="308" xlink:href="#hor" />
<use x="188" y="300" xlink:href="#ver" />
<use x="240" y="308" xlink:href="#hor" />
<use x="248" y="300" xlink:href="#ver" />
<use x="260" y="308" xlink:href="#hor" />
<use x="268" y="300" xlink:href="#ver" />
<use x="360" y="308" xlink:href="#hor" />
<use x="368" y="300" xlink:href="#ver" />
<use x="400" y="308" xlink:href="#hor" />
<use x="408" y="300" xlink:href="#ver" />
<use x="440" y="308" xlink:href="#hor" />
<use x="448" y="300" xlink:href="#ver" />
<use x="480" y="308" xlink:href="#hor" />
<use x="488" y="300" xlink:href="#ver" />
<use x="500" y="308" xlink:href="#hor" />
<use x="508" y="300" xlink:href="#ver" />
<use x="560" y="308" xlink:href="#hor" />
<use x="568" y="300" xlink:href="#ver" />
<use x="580" y="308" xlink:href="#hor" />
<use x="588" y="300" xlink:href="#ver" />
<use x="620" y="308" xlink:href="#hor" />
<use x="628" y="300" xlink:href="#ver" />
<use x="680" y="308" xlink:href="#hor" />
<use x="688" y="300" xlink:href="#ver" />
<use x="100" y="328" xlink:href="#hor" />
<use x="108" y="320" xlink:href="#ver" />
<use x="120" y="328" xlink:href="#hor" />
<use x="128" y="320" xlink:href="#ver" />
<use x="160" y="328" xlink:href="#hor" />
<use x="168" y="320" xlink:href="#ver" />
<use x="320" y="328" xlink:href="#hor" />
<use x="328" y="320" xlink:href="#ver" />
<use x="340" y="328" xlink:href="#hor" />
<use x="348" y="320" xlink:href="#ver" />
<use x="360" y="328" xlink:href="#hor" />
<use x="368" y="320" xlink:href="#ver" />
<use x="400" y="328" xlink:href="#hor" />
<use x="408" y="320" xlink:href="#ver" />
<use x="420" y="328" xlink:href="#hor" />
<use x="428" y="320" xlink:href="#ver" />
<use x="480" y="328" xlink:href="#hor" />
<use x="488" y="320" xlink:href="#ver" />
<use x="520" y="328" xlink:href="#hor" />
<use x="528" y="320" xlink:href="#ver" />
<use x="620" y="328" xlink:href="#hor" />
<use x="628" y="320" xlink:href="#ver" />
<use x="660" y="328" xlink:href="#hor" />
<use x="668" y="320" xlink:href="#ver" />
<use x="60" y="348" xlink:href="#hor" />
<use x="68" y="340" xlink:href="#ver" />
<use x="80" y="348" xlink:href="#hor" />
<use x="88" y="340" xlink:href="#ver" />
<use x="120" y="348" xlink:href="#hor" />
<use x="128" y="340" xlink:href="#ver" />
<use x="140" y="348" xlink:href="#hor" />
<use x="148" y="340" xlink:href="#ver" />
<use x="180" y="348" xlink:href="#hor" />
<use x="188" y="340" xlink:href="#ver" />
<use x="200" y="348" xlink:href="#hor" />
<use x="208" y="340" xlink:href="#ver" />
<use x="240" y="348" xlink:href="#hor" />
<use x="248" y="340" xlink:href="#ver" />
<use x="280" y="348" xlink:href="#hor" />
<use x="288" y="340" xlink:href="#ver" />
<use x="320" y="348" xlink:href="#hor" />
<use x="328" y="340" xlink:href="#ver" />
<use x="380" y="348" xlink:href="#hor" />
<use x="388" y="340" xlink:href="#ver" />
<use x="400" y="348" xlink:href="#hor" />
<use x="408" y="340" xlink:href="#ver" />
<use x="440" y="348" xlink:href="#hor" />
<use x="448" y="340" xlink:href="#ver" />
<use x="460" y="348" xlink:href="#hor" />
<use x="468" y="340" xlink:href="#ver" />
<use x="480" y="348" xlink:href="#hor" />
<use x="488" y="340" xlink:href="#ver" />
<use x="500" y="348" xlink:href="#hor" />
<use x="508" y="340" xlink:href="#ver" />
<use x="520" y="348" xlink:href="#hor" />
<use x="528" y="340" xlink:href="#ver" />
<use x="560" y="348" xlink:href="#hor" />
<use x="568" y="340" xlink:href="#ver" />
<use x="580" y="348" xlink:href="#hor" />
<use x="588" y="340" xlink:href="#ver" />
<use x="640" y="348" xlink:href="#hor" />
<use x="648" y="340" xlink:href="#ver" />
<use x="660" y="348" xlink:href="#hor" />
<use x="668" y="340" xlink:href="#ver" />
<use x="680" y="348" xlink:href="#hor" />
<use x="688" y="340" xlink:href="#ver" />
<use x="120" y="368" xlink:href="#hor" />
<use x="128" y="360" xlink:href="#ver" />
<use x="160" y="368" xlink:href="#hor" />
<use x="168" y="360" xlink:href="#ver" />
<use x="200" y="368" xlink:href="#hor" />
<use x="208" y="360" xlink:href="#ver" />
<use x="220" y="368" xlink:href="#hor" />
<use x="228" y="360" xlink:href="#ver" />
<use x="240" y="368" xlink:href="#hor" />
<use x="248" y="360" xlink:href="#ver" />
<use x="280" y="368" xlink:href="#hor" />
<use x="288" y="360" xlink:href="#ver" />
<use x="320" y="368" xlink:href="#hor" />
<use x="328" y="360" xlink:href="#ver" />
<use x="380" y="368" xlink:href="#hor" />
<use x="388" y="360" xlink:href="#ver" />
<use x="420" y="368" xlink:href="#hor" />
<use x="428" y="360" xlink:href="#ver" />
<use x="440" y="368" xlink:href="#hor" />
<use x="448" y="360" xlink:href="#ver" />
<use x="540" y="368" xlink:href="#hor" />
<use x="548" y="360" xlink:href="#ver" />
<use x="600" y="368" xlink:href="#hor" />
<use x="608" y="360" xlink:href="#ver" />
<use x="640" y="368" xlink:href="#hor" />
<use x="648" y="360" xlink:href="#ver" />
<use x="680" y="368" xlink:href="#hor" />
<use x="688" y="360" xlink:href="#ver" />
<use x="40" y="388" xlink:href="#hor" />
<use x="48" y="380" xlink:href="#ver" />
<use x="100" y="388" xlink:href="#hor" />
<use x="108" y="380" xlink:href="#ver" />
<use x="120" y="388" xlink:href="#hor" />
<use x="128" y="380" xlink:href="#ver" />
<use x="140" y="388" xlink:href="#hor" />
<use x="148" y="380" xlink:href="#ver" />
<use x="180" y="388" xlink:href="#hor" />
<use x="188" y="380" xlink:href="#ver" />
<use x="200" y="388" xlink:href="#hor" />
<use x="208" y="380" xlink:href="#ver" />
<use x="220" y="388" xlink:href="#hor" />
<use x="228" y="380" xlink:href="#ver" />
<use x="260" y="388" xlink:href="#hor" />
<use x="268" y="380" xlink:href="#ver" />
<use x="280" y="388" xlink:href="#hor" />
<use x="288" y="380" xlink:href="#ver" />
<use x="300" y="388" xlink:href="#hor" />
<use x="308" y="380" xlink:href="#ver" />
<use x="320" y="388" xlink:href="#hor" />
<use x="328" y="380" xlink:href="#ver" />
<use x="340" y="388" xlink:href="#hor" />
<use x="348" y="380" xlink:href="#ver" />
<use x="380" y="388" xlink:href="#hor" />
<use x="388" y="380" xlink:href="#ver" />
<use x="400" y="388" xlink:href="#hor" />
<use x="408" y="380" xlink:href="#ver" />
<use x="440" y="388" xlink:href="#hor" />
<use x="448" y="380" xlink:href="#ver" />
<use x="460" y="388" xlink:href="#hor" />
<use x="468" y="380" xlink:href="#ver" />
<use x="500" y="388" xlink:href="#hor" />
<use x="508" y="380" xlink:href="#ver" />
<use x="520" y="388" xlink:href="#hor" />
<use x="528" y="380" xlink:href="#ver" />
<use x="560" y="388" xlink:href="#hor" />
<use x="568" y="380" xlink:href="#ver" />
<use x="680" y="388" xlink:href="#hor" />
<use x="688" y="380" xlink:href="#ver" />
<use x="40" y="408" xlink:href="#hor" />
<use x="48" y="400" xlink:href="#ver" />
<use x="80" y="408" xlink:href="#hor" />
<use x="88" y="400" xlink:href="#ver" />
<use x="120" y="408" xlink:href="#hor" />
<use x="128" y="400" xlink:href="#ver" />
<use x="140" y="408" xlink:href="#hor" />
<use x="148" y="400" xlink:href="#ver" />
<use x="160" y="408" xlink:href="#hor" />
<use x="168" y="400" xlink:href="#ver" />
<use x="180" y="408" xlink:href="#hor" />
<use x="188" y="400" xlink:href="#ver" />
<use x="240" y="408" xlink:href="#hor" />
<use x="248" y="400" xlink:href="#ver" />
<use x="260" y="408" xlink:href="#hor" />
<use x="268" y="400" xlink:href="#ver" />
<use x="340" y="408" xlink:href="#hor" />
<use x="348" y="400" xlink:href="#ver" />
<use x="360" y="408" xlink:href="#hor" />
<use x="368" y="400" xlink:href="#ver" />
<use x="400" y="408" xlink:href="#hor" />
<use x="408" y="400" xlink:href="#ver" />
<use x="420" y="408" xlink:href="#hor" />
<use x="428" y="400" xlink:href="#ver" />
<use x="440" y="408" xlink:href="#hor" />
<use x="448" y="400" xlink:href="#ver" />
<use x="460" y="408" xlink:href="#hor" />
<use x="468" y="400" xlink:href="#ver" />
<use x="480" y="408" xlink:href="#hor" />
<use x="488" y="400" xlink:href="#ver" />
<use x="540" y="408" xlink:href="#hor" />
<use x="548" y="400" xlink:href="#ver" />
<use x="560" y="408" xlink:href="#hor" />
<use x="568" y="400" xlink:href="#ver" />
<use x="580" y="408" xlink:href="#hor" />
<use x="588" y="400" xlink:href="#ver" />
<use x="640" y="408" xlink:href="#hor" />
<use x="648" y="400" xlink:href="#ver" />
<use x="40" y="428" xlink:href="#hor" />
<use x="48" y="420" xlink:href="#ver" />
<use x="100" y="428" xlink:href="#hor" />
<use x="108" y="420" xlink:href="#ver" />
<use x="120" y="428" xlink:href="#hor" />
<use x="128" y="420" xlink:href="#ver" />
<use x="200" y="428" xlink:href="#hor" />
<use x="208" y="420" xlink:href="#ver" />
<use x="240" y="428" xlink:href="#hor" />
<use x="248" y="420" xlink:href="#ver" />
<use x="280" y="428" xlink:href="#hor" />
<use x="288" y="420" xlink:href="#ver" />
<use x="300" y="428" xlink:href="#hor" />
<use x="308" y="420" xlink:href="#ver" />
<use x="320" y="428" xlink:href="#hor" />
<use x="328" y="420" xlink:href="#ver" />
<use x="340" y="428" xlink:href="#hor" />
<use x="348" y="420" xlink:href="#ver" />
<use x="360" y="428" xlink:href="#hor" />
<use x="368" y="420" xlink:href="#ver" />
<use x="380" y="428" xlink:href="#hor" />
<use x="388" y="420" xlink:href="#ver" />
<use x="400" y="428" xlink:href="#hor" />
<use x="408" y="420" xlink:href="#ver" />
<use x="460" y="428" xlink:href="#hor" />
<use x="468" y="420" xlink:href="#ver" />
<use x="480" y="428" xlink:href="#hor" />
<use x="488" y="420" xlink:href="#ver" />
<use x="500" y="428" xlink:href="#hor" />
<use x="508" y="420" xlink:href="#ver" />
<use x="520" y="428" xlink:href="#hor" />
<use x="528" y="420" xlink:href="#ver" />
<use x="560" y="428" xlink:href="#hor" />
<use x="568" y="420" xlink:href="#ver" />
<use x="620" y="428" xlink:href="#hor" />
<use x="628" y="420" xlink:href="#ver" />
<use x="640" y="428" xlink:href="#hor" />
<use x="648" y="420" xlink:href="#ver" />
<use x="660" y="428" xlink:href="#hor" />
<use x="668" y="420" xlink:href="#ver" />
<use x="60" y="448" xlink:href="#hor" />
<use x="68" y="440" xlink:href="#ver" />
<use x="80" y="448" xlink:href="#hor" />
<use x="88" y="440" xlink:href="#ver" />
<use x="140" y="448" xlink:href="#hor" />
<use x="148" y="440" xlink:href="#ver" />
<use x="160" y="448" xlink:href="#hor" />
<use x="168" y="440" xlink:href="#ver" />
<use x="240" y="448" xlink:href="#hor" />
<use x="248" y="440" xlink:href="#ver" />
<use x="280" y="448" xlink:href="#hor" />
<use x="288" y="440" xlink:href="#ver" />
<use x="300" y="448" xlink:href="#hor" />
<use x="308" y="440" xlink:href="#ver" />
<use x="340" y="448" xlink:href="#hor" />
<use x="348" y="440" xlink:href="#ver" />
<use x="400" y="448" xlink:href="#hor" />
<use x="408" y="440" xlink:href="#ver" />
<use x="420" y="448" xlink:href="#hor" />
<use x="428" y="440" xlink:href="#ver" />
<use x="440" y="448" xlink:href="#hor" />
<use x="448" y="440" xlink:href="#ver" />
<use x="480" y="448" xlink:href="#hor" />
<use x="488" y="440" xlink:href="#ver" />
<use x="540" y="448" xlink:href="#hor" />
<use x="548" y="440" xlink:href="#ver" />
<use x="560" y="448" xlink:href="#hor" />
<use x="568" y="440" xlink:href="#ver" />
<use x="580" y="448" xlink:href="#hor" />
<use x="588" y="440" xlink:href="#ver" />
<use x="600" y="448" xlink:href="#hor" />
<use x="608" y="440" xlink:href="#ver" />
<use x="620" y="448" xlink:href="#hor" />
<use x="628" y="440" xlink:href="#ver" />
<use x="660" y="448" xlink:href="#hor" />
<use x="668" y="440" xlink:href="#ver" />
<use x="680" y="448" xlink:href="#hor" />
<use x="688" y="440" xlink:href="#ver" />
<use x="40" y="468" xlink:href="#hor" />
<use x="48" y="460" xlink:href="#ver" />
<use x="60" y="468" xlink:href="#hor" />
<use x="68" y="460" xlink:href="#ver" />
<use x="120" y="468" xlink:href="#hor" />
<use x="128" y="460" xlink:href="#ver" />
<use x="140" y="468" xlink:href="#hor" />
<use x="148" y="460" xlink:href="#ver" />
<use x="200" y="468" xlink:href="#hor" />
<use x="208" y="460" xlink:href="#ver" />
<use x="240" y="468" xlink:href="#hor" />
<use x="248" y="460" xlink:href="#ver" />
<use x="360" y="468" xlink:href="#hor" />
<use x="368" y="460" xlink:href="#ver" />
<use x="380" y="468" xlink:href="#hor" />
<use x="388" y="460" xlink:href="#ver" />
<use x="420" y="468" xlink:href="#hor" />
<use x="428" y="460" xlink:href="#ver" />
<use x="440" y="468" xlink:href="#hor" />
<use x="448" y="460" xlink:href="#ver" />
<use x="520" y="468" xlink:href="#hor" />
<use x="528" y="460" xlink:href="#ver" />
<use x="640" y="468" xlink:href="#hor" />
<use x="648" y="460" xlink:href="#ver" />
<use x="680" y="468" xlink:href="#hor" />
<use x="688" y="460" xlink:href="#ver" />
<use x="40" y="488" xlink:href="#hor" />
<use x="48" y="480" xlink:href="#ver" />
<use x="100" y="488" xlink:href="#hor" />
<use x="108" y="480" xlink:href="#ver" />
<use x="160" y="488" xlink:href="#hor" />
<use x="168" y="480" xlink:href="#ver" />
<use x="200" y="488" xlink:href="#hor" />
<use x="208" y="480" xlink:href="#ver" />
<use x="260" y="488" xlink:href="#hor" />
<use x="268" y="480" xlink:href="#ver" />
<use x="320" y="488" xlink:href="#hor" />
<use x="328" y="480" xlink:href="#ver" />
<use x="340" y="488" xlink:href="#hor" />
<use x="348" y="480" xlink:href="#ver" />
<use x="360" y="488" xlink:href="#hor" />
<use x="368" y="480" xlink:href="#ver" />
<use x="400" y="488" xlink:href="#hor" />
<use x="408" y="480" xlink:href="#ver" />
<use x="480" y="488" xlink:href="#hor" />
<use x="488" y="480" xlink:href="#ver" />
<use x="600" y="488" xlink:href="#hor" />
<use x="608" y="480" xlink:href="#ver" />
<use x="660" y="488" xlink:href="#hor" />
<use x="668" y="480" xlink:href="#ver" />
<use x="40" y="508" xlink:href="#hor" />
<use x="48" y="500" xlink:href="#ver" />
<use x="80" y="508" xlink:href="#hor" />
<use x="88" y="500" xlink:href="#ver" />
<use x="100" y="508" xlink:href="#hor" />
<use x="108" y="500" xlink:href="#ver" />
<use x="140" y="508" xlink:href="#hor" />
<use x="148" y="500" xlink:href="#ver" />
<use x="180" y="508" xlink:href="#hor" />
<use x="188" y="500" xlink:href="#ver" />
<use x="220" y="508" xlink:href="#hor" />
<use x="228" y="500" xlink:href="#ver" />
<use x="240" y="508" xlink:href="#hor" />
<use x="248" y="500" xlink:href="#ver" />
<use x="300" y="508" xlink:href="#hor" />
<use x="308" y="500" xlink:href="#ver" />
<use x="380" y="508" xlink:href="#hor" />
<use x="388" y="500" xlink:href="#ver" />
<use x="460" y="508" xlink:href="#hor" />
<use x="468" y="500" xlink:href="#ver" />
<use x="480" y="508" xlink:href="#hor" />
<use x="488" y="500" xlink:href="#ver" />
<use x="520" y="508" xlink:href="#hor" />
<use x="528" y="500" xlink:href="#ver" />
<use x="600" y="508" xlink:href="#hor" />
<use x="608" y="500" xlink:href="#ver" />
<use x="620" y="508" xlink:href="#hor" />
<use x="628" y="500" xlink:href="#ver" />
<use x="640" y="508" xlink:href="#hor" />
<use x="648" y="500" xlink:href="#ver" />
<use x="660" y="508" xlink:href="#hor" />
<use x="668" y="500" xlink:href="#ver" />
<use x="40" y="528" xlink:href="#hor" />
<use x="48" y="520" xlink:href="#ver" />
<use x="120" y="528" xlink:href="#hor" />
<use x="128" y="520" xlink:href="#ver" />
<use x="160" y="528" xlink:href="#hor" />
<use x="168" y="520" xlink:href="#ver" />
<use x="240" y="528" xlink:href="#hor" />
<use x="248" y="520" xlink:href="#ver" />
<use x="320" y="528" xlink:href="#hor" />
<use x="328" y="520" xlink:href="#ver" />
<use x="360" y="528" xlink:href="#hor" />
<use x="368" y="520" xlink:href="#ver" />
<use x="420" y="528" xlink:href="#hor" />
<use x="428" y="520" xlink:href="#ver" />
<use x="480" y="528" xlink:href="#hor" />
<use x="488" y="520" xlink:href="#ver" />
<use x="520" y="528" xlink:href="#hor" />
<use x="528" y="520" xlink:href="#ver" />
<use x="540" y="528" xlink:href="#hor" />
<use x="548" y="520" xlink:href="#ver" />
<use x="560" y="528" xlink:href="#hor" />
<use x="568" y="520" xlink:href="#ver" />
<use x="580" y="528" xlink:href="#hor" />
<use x="588" y="520" xlink:href="#ver" />
<use x="600" y="528" xlink:href="#hor" />
<use x="608" y="520" xlink:href="#ver" />
<use x="660" y="528" xlink:href="#hor" />
<use x="668" y="520" xlink:href="#ver" />
<use x="680" y="528" xlink:href="#hor" />
<use x="688" y="520" xlink:href="#ver" />
<use x="200" y="548" xlink:href="#hor" />
<use x="208" y="540" xlink:href="#ver" />
<use x="220" y="548" xlink:href="#hor" />
<use x="228" y="540" xlink:href="#ver" />
<use x="240" y="548" xlink:href="#hor" />
<use x="248" y="540" xlink:href="#ver" />
<use x="320" y="548" xlink:href="#hor" />
<use x="328" y="540" xlink:href="#ver" />
<use x="340" y="548" xlink:href="#hor" />
<use x="348" y="540" xlink:href="#ver" />
<use x="360" y="548" xlink:href="#hor" />
<use x="368" y="540" xlink:href="#ver" />
<use x="380" y="548" xlink:href="#hor" />
<use x="388" y="540" xlink:href="#ver" />
<use x="420" y="548" xlink:href="#hor" />
<use x="428" y="540" xlink:href="#ver" />
<use x="520" y="548" xlink:href="#hor" />
<use x="528" y="540" xlink:href="#ver" />
<use x="600" y="548" xlink:href="#hor" />
<use x="608" y="540" xlink:href="#ver" />
<use x="680" y="548" xlink:href="#hor" />
<use x="688" y="540" xlink:href="#ver" />
<use x="40" y="568" xlink:href="#hor" />
<use x="48" y="560" xlink:href="#ver" />
<use x="60" y="568" xlink:href="#hor" />
<use x="68" y="560" xlink:href="#ver" />
<use x="80" y="568" xlink:href="#hor" />
<use x="88" y="560" xlink:href="#ver" />
<use x="100" y="568" xlink:href="#hor" />
<use x="108" y="560" xlink:href="#ver" />
<use x="120" y="568" xlink:href="#hor" />
<use x="128" y="560" xlink:href="#ver" />
<use x="140" y="568" xlink:href="#hor" />
<use x="148" y="560" xlink:href="#ver" />
<use x="160" y="568" xlink:href="#hor" />
<use x="168" y="560" xlink:href="#ver" />
<use x="220" y="568" xlink:href="#hor" />
<use x="228" y="560" xlink:href="#ver" />
<use x="240" y="568" xlink:href="#hor" />
<use x="248" y="560" xlink:href="#ver" />
<use x="260" y="568" xlink:href="#hor" />
<use x="268" y="560" xlink:href="#ver" />
<use x="280" y="568" xlink:href="#hor" />
<use x="288" y="560" xlink:href="#ver" />
<use x="360" y="568" xlink:href="#hor" />
<use x="368" y="560" xlink:href="#ver" />
<use x="400" y="568" xlink:href="#hor" />
<use x="408" y="560" xlink:href="#ver" />
<use x="420" y="568" xlink:href="#hor" />
<use x="428" y="560" xlink:href="#ver" />
<use x="440" y="568" xlink:href="#hor" />
<use x="448" y="560" xlink:href="#ver" />
<use x="480" y="568" xlink:href="#hor" />
<use x="488" y="560" xlink:href="#ver" />
<use x="500" y="568" xlink:href="#hor" />
<use x="508" y="560" xlink:href="#ver" />
<use x="520" y="568" xlink:href="#hor" />
<use x="528" y="560" xlink:href="#ver" />
<use x="560" y="568" xlink:href="#hor" />
<use x="568" y="560" xlink:href="#ver" />
<use x="600" y="568" xlink:href="#hor" />
<use x="608" y="560" xlink:href="#ver" />
<use x="620" y="568" xlink:href="#hor" />
<use x="628" y="560" xlink:href="#ver" />
<use x="640" y="568" xlink:href="#hor" />
<use x="648" y="560" xlink:href="#ver" />
<use x="660" y="568" xlink:href="#hor" />
<use x="668" y="560" xlink:href="#ver" />
<use x="40" y="588" xlink:href="#hor" />
<use x="48" y="580" xlink:href="#ver" />
<use x="160" y="588" xlink:href="#hor" />
<use x="168" y="580" xlink:href="#ver" />
<use x="220" y="588" xlink:href="#hor" />
<use x="228" y="580" xlink:href="#ver" />
<use x="240" y="588" xlink:href="#hor" />
<use x="248" y="580" xlink:href="#ver" />
<use x="300" y="588" xlink:href="#hor" />
<use x="308" y="580" xlink:href="#ver" />
<use x="340" y="588" xlink:href="#hor" />
<use x="348" y="580" xlink:href="#ver" />
<use x="380" y="588" xlink:href="#hor" />
<use x="388" y="580" xlink:href="#ver" />
<use x="400" y="588" xlink:href="#hor" />
<use x="408" y="580" xlink:href="#ver" />
<use x="440" y="588" xlink:href="#hor" />
<use x="448" y="580" xlink:href="#ver" />
<use x="520" y="588" xlink:href="#hor" />
<use x="528" y="580" xlink:href="#ver" />
<use x="600" y="588" xlink:href="#hor" />
<use x="608" y="580" xlink:href="#ver" />
<use x="620" y="588" xlink:href="#hor" />
<use x="628" y="580" xlink:href="#ver" />
<use x="640" y="588" xlink:href="#hor" />
<use x="648" y="580" xlink:href="#ver" />
<use x="660" y="588" xlink:href="#hor" />
<use x="668" y="580" xlink:href="#ver" />
<use x="680" y="588" xlink:href="#hor" />
<use x="688" y="580" xlink:href="#ver" />
<use x="40" y="608" xlink:href="#hor" />
<use x="48" y="600" xlink:href="#ver" />
<use x="80" y="608" xlink:href="#hor" />
<use x="88" y="600" xlink:href="#ver" />
<use x="100" y="608" xlink:href="#hor" />
<use x="108" y="600" xlink:href="#ver" />
<use x="120" y="608" xlink:href="#hor" />
<use x="128" y="600" xlink:href="#ver" />
<use x="160" y="608" xlink:href="#hor" />
<use x="168" y="600" xlink:href="#ver" />
<use x="200" y="608" xlink:href="#hor" />
<use x="208" y="600" xlink:href="#ver" />
<use x="220" y="608" xlink:href="#hor" />
<use x="228" y="600" xlink:href="#ver" />
<use x="240" y="608" xlink:href="#hor" />
<use x="248" y="600" xlink:href="#ver" />
<use x="280" y="608" xlink:href="#hor" />
<use x="288" y="600" xlink:href="#ver" />
<use x="300" y="608" xlink:href="#hor" />
<use x="308" y="600" xlink:href="#ver" />
<use x="320" y="608" xlink:href="#hor" />
<use x="328" y="600" xlink:href="#ver" />
<use x="360" y="608" xlink:href="#hor" />
<use x="368" y="600" xlink:href="#ver" />
<use x="380" y="608" xlink:href="#hor" />
<use x="388" y="600" xlink:href="#ver" />
<use x="420" y="608" xlink:href="#hor" />
<use x="428" y="600" xlink:href="#ver" />
<use x="440" y="608" xlink:href="#hor" />
<use x="448" y="600" xlink:href="#ver" />
<use x="460" y="608" xlink:href="#hor" />
<use x="468" y="600" xlink:href="#ver" />
<use x="480" y="608" xlink:href="#hor" />
<use x="488" y="600" xlink:href="#ver" />
<use x="520" y="608" xlink:href="#hor" />
<use x="528" y="600" xlink:href="#ver" />
<use x="540" y="608" xlink:href="#hor" />
<use x="548" y="600" xlink:href="#ver" />
<use x="560" y="608" xlink:href="#hor" />
<use x="568" y="600" xlink:href="#ver" />
<use x="580" y="608" xlink:href="#hor" />
<use x="588" y="600" xlink:href="#ver" />
<use x="600" y="608" xlink:href="#hor" />
<use x="608" y="600" xlink:href="#ver" />
<use x="620" y="608" xlink:href="#hor" />
<use x="628" y="600" xlink:href="#ver" />
<use x="660" y="608" xlink:href="#hor" />
<use x="668" y="600" xlink:href="#ver" />
<use x="680" y="608" xlink:href="#hor" />
<use x="688" y="600" xlink:href="#ver" />
<use x="40" y="628" xlink:href="#hor" />
<use x="48" y="620" xlink:href="#ver" />
<use x="80" y="628" xlink:href="#hor" />
<use x="88" y="620" xlink:href="#ver" />
<use x="100" y="628" xlink:href="#hor" />
<use x="108" y="620" xlink:href="#ver" />
<use x="120" y="628" xlink:href="#hor" />
<use x="128" y="620" xlink:href="#ver" />
<use x="160" y="628" xlink:href="#hor" />
<use x="168" y="620" xlink:href="#ver" />
<use x="200" y="628" xlink:href="#hor" />
<use x="208" y="620" xlink:href="#ver" />
<use x="240" y="628" xlink:href="#hor" />
<use x="248" y="620" xlink:href="#ver" />
<use x="260" y="628" xlink:href="#hor" />
<use x="268" y="620" xlink:href="#ver" />
<use x="280" y="628" xlink:href="#hor" />
<use x="288" y="620" xlink:href="#ver" />
<use x="500" y="628" xlink:href="#hor" />
<use x="508" y="620" xlink:href="#ver" />
<use x="520" y="628" xlink:href="#hor" />
<use x="528" y="620" xlink:href="#ver" />
<use x="540" y="628" xlink:href="#hor" />
<use x="548" y="620" xlink:href="#ver" />
<use x="600" y="628" xlink:href="#hor" />
<use x="608" y="620" xlink:href="#ver" />
<use x="620" y="628" xlink:href="#hor" />
<use x="628" y="620" xlink:href="#ver" />
<use x="660" y="628" xlink:href="#hor" />
<use x="668" y="620" xlink:href="#ver" />
<use x="40" y="648" xlink:href="#hor" />
<use x="48" y="640" xlink:href="#ver" />
<use x="80" y="648" xlink:href="#hor" />
<use x="88" y="640" xlink:href="#ver" />
<use x="100" y="648" xlink:href="#hor" />
<use x="108" y="640" xlink:href="#ver" />
<use x="120" y="648" xlink:href="#hor" />
<use x="128" y="640" xlink:href="#ver" />
<use x="160" y="648" xlink:href="#hor" />
<use x="168" y="640" xlink:href="#ver" />
<use x="200" y="648" xlink:href="#hor" />
<use x="208" y="640" xlink:href="#ver" />
<use x="280" y="648" xlink:href="#hor" />
<use x="288" y="640" xlink:href="#ver" />
<use x="300" y="648" xlink:href="#hor" />
<use x="308" y="640" xlink:href="#ver" />
<use x="340" y="648" xlink:href="#hor" />
<use x="348" y="640" xlink:href="#ver" />
<use x="360" y="648" xlink:href="#hor" />
<use x="368" y="640" xlink:href="#ver" />
<use x="420" y="648" xlink:href="#hor" />
<use x="428" y="640" xlink:href="#ver" />
<use x="440" y="648" xlink:href="#hor" />
<use x="448" y="640" xlink:href="#ver" />
<use x="480" y="648" xlink:href="#hor" />
<use x="488" y="640" xlink:href="#ver" />
<use x="500" y="648" xlink:href="#hor" />
<use x="508" y="640" xlink:href="#ver" />
<use x="520" y="648" xlink:href="#hor" />
<use x="528" y="640" xlink:href="#ver" />
<use x="540" y="648" xlink:href="#hor" />
<use x="548" y="640" xlink:href="#ver" />
<use x="560" y="648" xlink:href="#hor" />
<use x="568" y="640" xlink:href="#ver" />
<use x="40" y="668" xlink:href="#hor" />
<use x="48" y="660" xlink:href="#ver" />
<use x="160" y="668" xlink:href="#hor" />
<use x="168" y="660" xlink:href="#ver" />
<use x="260" y="668" xlink:href="#hor" />
<use x="268" y="660" xlink:href="#ver" />
<use x="340" y="668" xlink:href="#hor" />
<use x="348" y="660" xlink:href="#ver" />
<use x="360" y="668" xlink:href="#hor" />
<use x="368" y="660" xlink:href="#ver" />
<use x="380" y="668" xlink:href="#hor" />
<use x="388" y="660" xlink:href="#ver" />
<use x="400" y="668" xlink:href="#hor" />
<use x="408" y="660" xlink:href="#ver" />
<use x="460" y="668" xlink:href="#hor" />
<use x="468" y="660" xlink:href="#ver" />
<use x="480" y="668" xlink:href="#hor" />
<use x="488" y="660" xlink:href="#ver" />
<use x="500" y="668" xlink:href="#hor" />
<use x="508" y="660" xlink:href="#ver" />
<use x="540" y="668" xlink:href="#hor" />
<use x="548" y="660" xlink:href="#ver" />
<use x="560" y="668" xlink:href="#hor" />
<use x="568" y="660" xlink:href="#ver" />
<use x="580" y="668" xlink:href="#hor" />
<use x="588" y="660" xlink:href="#ver" />
<use x="620" y="668" xlink:href="#hor" />
<use x="628" y="660" xlink:href="#ver" />
<use x="40" y="688" xlink:href="#hor" />
<use x="48" y="680" xlink:href="#ver" />
<use x="60" y="688" xlink:href="#hor" />
<use x="68" y="680" xlink:href="#ver" />
<use x="80" y="688" xlink:href="#hor" />
<use x="88" y="680" xlink:href="#ver" />
<use x="100" y="688" xlink:href="#hor" />
<use x="108" y="680" xlink:href="#ver" />
<use x="120" y="688" xlink:href="#hor" />
<use x="128" y="680" xlink:href="#ver" />
<use x="140" y="688" xlink:href="#hor" />
<use x="148" y="680" xlink:href="#ver" />
<use x="160" y="688" xlink:href="#hor" />
<use x="168" y="680" xlink:href="#ver" />
<use x="220" y="688" xlink:href="#hor" />
<use x="228" y="680" xlink:href="#ver" />
<use x="280" y="688" xlink:href="#hor" />
<use x="288" y="680" xlink:href="#ver" />
<use x="320" y="688" xlink:href="#hor" />
<use x="328" y="680" xlink:href="#ver" />
<use x="360" y="688" xlink:href="#hor" />
<use x="368" y="680" xlink:href="#ver" />
<use x="420" y="688" xlink:href="#hor" />
<use x="428" y="680" xlink:href="#ver" />
<use x="440" y="688" xlink:href="#hor" />
<use x="448" y="680" xlink:href="#ver" />
<use x="480" y="688" xlink:href="#hor" />
<use x="488" y="680" xlink:href="#ver" />
<use x="500" y="688" xlink:href="#hor" />
<use x="508" y="680" xlink:href="#ver" />
<use x="520" y="688" xlink:href="#hor" />
<use x="528" y="680" xlink:href="#ver" />
<use x="560" y="688" xlink:href="#hor" />
<use x="568" y="680" xlink:href="#ver" />
<use x="640" y="688" xlink:href="#hor" />
<use x="648" y="680" xlink:href="#ver" />
<use x="660" y="688" xlink:href="#hor" />
<use x="668" y="680" xlink:href="#ver" />
</g>
</svg>